<?xml version="1.0" encoding="UTF-8"?>
<svg width="32" height="32" viewBox="0 0 32 32" fill="none" xmlns="http://www.w3.org/2000/svg">
  <!-- Document background -->
  <rect x="6" y="4" width="16" height="20" rx="2" fill="#3B82F6" opacity="0.1"/>
  
  <!-- Document icon -->
  <path d="M8 6C8 5.44772 8.44772 5 9 5H19C19.5523 5 20 5.44772 20 6V22C20 22.5523 19.5523 23 19 23H9C8.44772 23 8 22.5523 8 22V6Z" fill="#3B82F6"/>
  
  <!-- Document lines -->
  <rect x="10" y="8" width="8" height="1" rx="0.5" fill="white" opacity="0.8"/>
  <rect x="10" y="10" width="6" height="1" rx="0.5" fill="white" opacity="0.6"/>
  <rect x="10" y="12" width="7" height="1" rx="0.5" fill="white" opacity="0.6"/>
  
  <!-- Brain/Mind icon -->
  <circle cx="24" cy="16" r="6" fill="#6366F1" opacity="0.9"/>
  
  <!-- Brain pattern -->
  <path d="M21 14C21 13.4477 21.4477 13 22 13H23C23.5523 13 24 13.4477 24 14V15H26C26.5523 15 27 15.4477 27 16C27 16.5523 26.5523 17 26 17H24V18C24 18.5523 23.5523 19 23 19H22C21.4477 19 21 18.5523 21 18V14Z" fill="white" opacity="0.9"/>
  
  <!-- Chat bubble -->
  <circle cx="26" cy="10" r="4" fill="#10B981"/>
  <path d="M24 9H28V11H24V9Z" fill="white"/>
  <circle cx="26" cy="13" r="1" fill="#10B981"/>
</svg>
